<?xml version="1.0" standalone="no"?>
<!DOCTYPE svg PUBLIC "-//W3C//DTD SVG 20010904//EN"
 "http://www.w3.org/TR/2001/REC-SVG-20010904/DTD/svg10.dtd">
<svg version="1.0" xmlns="http://www.w3.org/2000/svg"
 width="288.000000pt" height="288.000000pt" viewBox="0 0 288.000000 288.000000"
 preserveAspectRatio="xMidYMid meet">
<metadata>
Created by potrace 1.11, written by Peter Selinger 2001-2013
</metadata>
<g transform="translate(0.000000,288.000000) scale(0.100000,-0.100000)"
fill="#000000" stroke="none">
<path d="M1289 2876 c-2 -2 -26 -6 -54 -10 -27 -3 -66 -10 -85 -14 -19 -5 -39
-10 -45 -11 -77 -14 -213 -64 -310 -112 -407 -204 -697 -594 -775 -1045 -14
-84 -18 -146 -15 -274 1 -91 6 -176 9 -190 3 -14 11 -50 16 -81 25 -139 113
-348 204 -487 59 -90 94 -133 179 -221 219 -226 501 -369 827 -419 58 -9 342
-9 400 0 131 20 290 66 404 118 202 91 416 267 556 455 106 143 214 375 241
520 1 6 6 26 11 45 23 100 33 382 16 490 -21 137 -58 267 -104 368 -13 29 -24
55 -24 58 0 3 -24 47 -54 98 -129 220 -314 403 -537 531 -43 25 -80 45 -83 45
-3 0 -29 11 -58 24 -83 37 -207 76 -288 90 -19 3 -46 9 -60 12 -29 7 -364 16
-371 10z"/>
</g>
</svg>
